<?xml version="1.0" encoding="utf-8"?>
<!-- Generator: Adobe Illustrator 21.0.1, SVG Export Plug-In . SVG Version: 6.00 Build 0)  -->
<svg version="1.1" id="Layer_1" xmlns="http://www.w3.org/2000/svg" xmlns:xlink="http://www.w3.org/1999/xlink" x="0px" y="0px"
	 viewBox="0 0 118.57 32" style="enable-background:new 0 0 118.57 32;" xml:space="preserve">
<style type="text/css">
	.Drop_x0020_Shadow{fill:none;}
	.Round_x0020_Corners_x0020_2_x0020_pt{fill:#FFFFFF;stroke:#231F20;stroke-miterlimit:10;}
	.Live_x0020_Reflect_x0020_X{fill:none;}
	.Bevel_x0020_Soft{fill:url(#SVGID_1_);}
	.Dusk{fill:#FFFFFF;}
	.Foliage_GS{fill:#FFDD00;}
	.Pompadour_GS{fill-rule:evenodd;clip-rule:evenodd;fill:#44ADE2;}
	.st0{fill:#303030;}
	.st1{fill:#C0D032;}
	.st2{fill:#93AE3D;}
	.st3{fill:#0E7FC9;}
	.st4{fill:#19BDD4;}
	.st5{fill:#C81100;}
	.st6{fill:#FFFFFF;}
	.st7{fill:#BF5700;}
	.st8{fill:#797A7D;}
	.st9{fill:#2F8DC6;}
	.st10{fill:#1C356D;}
</style>
<linearGradient id="SVGID_1_" gradientUnits="userSpaceOnUse" x1="-444.0008" y1="0" x2="-443.2937" y2="0.7071">
	<stop  offset="0" style="stop-color:#DEDFE3"/>
	<stop  offset="0.1783" style="stop-color:#DADBDF"/>
	<stop  offset="0.3611" style="stop-color:#CECFD3"/>
	<stop  offset="0.546" style="stop-color:#B9BCBF"/>
	<stop  offset="0.7324" style="stop-color:#9CA0A2"/>
	<stop  offset="0.9181" style="stop-color:#787D7E"/>
	<stop  offset="1" style="stop-color:#656B6C"/>
</linearGradient>
<g>
	<circle class="st9" cx="15.07" cy="16" r="15.07"/>
	<polygon class="st6" points="15.07,5.45 18.18,11.74 25.12,12.75 20.09,17.64 21.28,24.55 15.07,21.29 8.87,24.55 10.05,17.64 
		5.03,12.75 11.97,11.74 	"/>
	<path class="st10" d="M33.48,13.3l1.47-10.36h0.17l4.21,8.51l4.17-8.51h0.17l1.47,10.36h-1.01l-1.01-7.42l-3.67,7.43H39.2
		l-3.73-7.48l-1,7.48H33.48z"/>
	<path class="st10" d="M47.06,2.93h1.04v10.36h-1.04V2.93z"/>
	<path class="st10" d="M50.47,2.93h2.56c1.14,0,2.19,0.06,3.22,0.48c1.86,0.75,2.98,2.54,2.98,4.82c0,2.96-1.79,5.07-5.13,5.07
		h-3.62V2.93z M53.04,12.29c1.96,0,3.26-0.17,4.19-1.3c0.61-0.78,0.94-1.75,0.91-2.74c0.03-0.99-0.28-1.95-0.87-2.74
		c-0.98-1.29-2.45-1.56-4.71-1.56h-1.05v8.35H53.04z"/>
	<path class="st10" d="M61.22,2.93h1.04v9.36h3.99v1.01h-5.02V2.93z"/>
	<path class="st10" d="M78.38,8.11c-0.05,3.02-2.53,5.43-5.55,5.38c-2.93-0.05-5.31-2.4-5.38-5.34c0-3.09,2.4-5.49,5.38-5.49
		C75.98,2.67,78.38,5.02,78.38,8.11z M68.53,8.16c0.02,2.42,1.99,4.37,4.41,4.35c2.42-0.02,4.37-1.99,4.35-4.41
		s-1.99-4.37-4.41-4.35C70.46,3.76,68.51,5.74,68.53,8.16L68.53,8.16z"/>
	<path class="st10" d="M79.42,3.94V2.93h5.69v1.01h-2.31v9.36h-1.04V3.94H79.42z"/>
	<path class="st10" d="M86.59,2.93h1.04v4.35h5.29V2.93h1.04v10.36h-1.05v-5h-5.29v5.01h-1.04L86.59,2.93z"/>
	<path class="st10" d="M96.31,2.93h1.04v10.36h-1.04V2.93z"/>
	<path class="st10" d="M103.96,2.93l4.84,10.36h-1.1l-1.63-3.41h-4.49l-1.62,3.41H98.8l4.91-10.36L103.96,2.93z M103.82,5.12
		l-1.79,3.75h3.55L103.82,5.12z"/>
	<path class="st10" d="M110.44,13.3V2.94h0.22l6.87,7.94V2.94h1.04V13.3h-0.23l-6.87-7.84v7.84H110.44z"/>
	<path class="st9" d="M32.47,28.27l1.76-12.34h0.2l5.02,10.14l4.97-10.14h0.21l1.76,12.34h-1.21l-1.2-8.84l-4.38,8.84H39.3
		l-4.44-8.92l-1.19,8.92H32.47z"/>
	<path class="st9" d="M48.66,15.91h1.24v12.34h-1.24V15.91z"/>
	<path class="st9" d="M52.79,15.91h2.84c1.29,0,2.27,0.09,2.87,0.31c1.25,0.45,2.07,1.65,2.03,2.98c0.02,0.54-0.1,1.07-0.36,1.54
		c-0.64,1.29-1.87,1.79-3.92,1.79l4.46,5.74h-1.53l-4.44-5.75h-0.71v5.75h-1.24V15.91z M54.03,17.11v4.19
		c0.69,0,1.39,0.02,2.05,0.02c1.07,0,1.89-0.1,2.42-0.53c0.47-0.4,0.74-0.98,0.74-1.6c0-1.2-0.83-2.08-2.68-2.08L54.03,17.11z"/>
	<path class="st9" d="M63.23,15.91h2.84c1.29,0,2.27,0.09,2.87,0.31c1.26,0.44,2.09,1.64,2.05,2.98c0.02,0.54-0.1,1.07-0.36,1.54
		c-0.64,1.29-1.88,1.79-3.92,1.79l4.45,5.74H69.6l-4.43-5.75h-0.71v5.75h-1.24L63.23,15.91z M64.47,17.11v4.19
		c0.69,0,1.4,0.02,2.05,0.02c1.07,0,1.89-0.1,2.42-0.53c0.47-0.4,0.74-0.98,0.74-1.6c0-1.2-0.82-2.08-2.68-2.08L64.47,17.11z"/>
	<path class="st9" d="M86.09,22.09c0.01,3.6-2.89,6.52-6.49,6.54c-3.6,0.01-6.52-2.89-6.54-6.49c0-3.68,2.85-6.54,6.42-6.54
		C83.24,15.6,86.09,18.4,86.09,22.09z M74.36,22.15c-0.04,2.85,2.25,5.19,5.1,5.23c0.03,0,0.06,0,0.09,0c2.89,0,5.25-2.2,5.25-5.29
		c-0.02-2.88-2.37-5.21-5.26-5.19C76.66,16.92,74.34,19.27,74.36,22.15L74.36,22.15L74.36,22.15z"/>
	<path class="st9" d="M88.62,15.91h2.84c1.29,0,2.27,0.09,2.87,0.31c1.25,0.45,2.07,1.65,2.03,2.98c0.02,0.54-0.1,1.07-0.36,1.54
		c-0.64,1.29-1.88,1.79-3.92,1.79l4.47,5.74h-1.53l-4.44-5.75h-0.71v5.75h-1.24V15.91z M89.85,17.11v4.19c0.69,0,1.4,0.02,2.05,0.02
		c1.07,0,1.89-0.1,2.42-0.53c0.47-0.4,0.74-0.98,0.74-1.6c0-1.2-0.82-2.08-2.68-2.08L89.85,17.11z"/>
</g>
</svg>
